<svg xmlns="http://www.w3.org/2000/svg" viewBox="0 0 1680 960" font-family="'Noto Sans JP','Hiragino Sans',sans-serif">
  <defs>
    <marker id="arr" viewBox="0 0 10 10" refX="9" refY="5" markerWidth="7" markerHeight="7" orient="auto-start-reverse">
      <path d="M0,0 L10,5 L0,10 z" fill="#64748b"/>
    </marker>
    <marker id="arrB" viewBox="0 0 10 10" refX="9" refY="5" markerWidth="7" markerHeight="7" orient="auto-start-reverse">
      <path d="M0,0 L10,5 L0,10 z" fill="#2563eb"/>
    </marker>
  </defs>

  <rect width="1680" height="960" fill="#f8fafc"/>

  <!-- Title -->
  <text x="40" y="52" font-size="30" font-weight="700" fill="#0f172a">🏛️ Citify — システムアーキテクチャ</text>
  <text x="40" y="80" font-size="15" fill="#475569">自治体の議事録・プレス・統計を 13 の AI エージェントが翻訳・採点・分析し、若者向け For You フィードと「街の見張り番」Watcher で届ける (Google Cloud / 2026-07)</text>

  <!-- ============ Data sources ============ -->
  <rect x="40" y="120" width="240" height="330" rx="14" fill="#ffffff" stroke="#cbd5e1" stroke-width="1.5"/>
  <text x="60" y="152" font-size="16" font-weight="700" fill="#334155">📥 公開データソース</text>
  <rect x="60" y="170" width="200" height="56" rx="8" fill="#f1f5f9" stroke="#cbd5e1"/>
  <text x="70" y="193" font-size="13.5" font-weight="600" fill="#0f172a">国会会議録検索 API</text>
  <text x="70" y="212" font-size="11.5" fill="#64748b">発言 2,000 件超</text>
  <rect x="60" y="236" width="200" height="56" rx="8" fill="#f1f5f9" stroke="#cbd5e1"/>
  <text x="70" y="259" font-size="13.5" font-weight="600" fill="#0f172a">自治体議事録</text>
  <text x="70" y="278" font-size="11.5" fill="#64748b">kaigiroku.net (Playwright)</text>
  <rect x="60" y="302" width="200" height="56" rx="8" fill="#f1f5f9" stroke="#cbd5e1"/>
  <text x="70" y="325" font-size="13.5" font-weight="600" fill="#0f172a">プレスリリース RSS</text>
  <text x="70" y="344" font-size="11.5" fill="#64748b">45 自治体 (都道府県+政令市)</text>
  <rect x="60" y="368" width="200" height="56" rx="8" fill="#f1f5f9" stroke="#cbd5e1"/>
  <text x="70" y="391" font-size="13.5" font-weight="600" fill="#0f172a">統計オープンデータ</text>
  <text x="70" y="410" font-size="11.5" fill="#64748b">e-Stat / 不動産情報ライブラリ</text>
  <text x="60" y="438" font-size="11" fill="#94a3b8">robots.txt・利用規約を尊重</text>

  <!-- ============ Pipeline ============ -->
  <rect x="330" y="120" width="430" height="330" rx="14" fill="#eff6ff" stroke="#93c5fd" stroke-width="1.5"/>
  <text x="350" y="152" font-size="16" font-weight="700" fill="#1e40af">⚙️ 非同期パイプライン — Pub/Sub + Cloud Run Jobs</text>
  <text x="350" y="172" font-size="11.5" fill="#3b82f6">Cloud Scheduler 09:00 JST 日次起動 / DLQ + fan-out 構成</text>

  <rect x="350" y="188" width="180" height="52" rx="8" fill="#ffffff" stroke="#93c5fd"/>
  <text x="360" y="209" font-size="13" font-weight="600" fill="#0f172a">🖊️ Translator Agent</text>
  <text x="360" y="227" font-size="11" fill="#64748b">役所言葉→年代別に平易化</text>
  <rect x="560" y="188" width="180" height="52" rx="8" fill="#ffffff" stroke="#93c5fd"/>
  <text x="570" y="209" font-size="13" font-weight="600" fill="#0f172a">🎯 Relevance Agent</text>
  <text x="570" y="227" font-size="11" fill="#64748b">4軸採点 × 5ペルソナ fan-out</text>
  <rect x="350" y="266" width="180" height="52" rx="8" fill="#ffffff" stroke="#93c5fd"/>
  <text x="360" y="287" font-size="13" font-weight="600" fill="#0f172a">📮 Distributor Agent</text>
  <text x="360" y="305" font-size="11" fill="#64748b">MMR 多様性ランキング</text>
  <rect x="560" y="266" width="180" height="52" rx="8" fill="#ffffff" stroke="#93c5fd"/>
  <text x="570" y="287" font-size="13" font-weight="600" fill="#0f172a">🧪 Critic Agent</text>
  <text x="570" y="305" font-size="11" fill="#64748b">翻訳品質の自己批評 (opt-in)</text>

  <line x1="530" y1="214" x2="558" y2="214" stroke="#2563eb" stroke-width="2" marker-end="url(#arrB)"/>
  <line x1="650" y1="240" x2="650" y2="252" stroke="#2563eb" stroke-width="2"/>
  <path d="M650,252 C650,260 540,258 460,264" stroke="#2563eb" stroke-width="2" fill="none" marker-end="url(#arrB)"/>
  <line x1="440" y1="240" x2="440" y2="264" stroke="#94a3b8" stroke-width="1.5" stroke-dasharray="4 3" marker-end="url(#arr)"/>

  <rect x="350" y="344" width="390" height="42" rx="8" fill="#dbeafe" stroke="#93c5fd"/>
  <text x="360" y="370" font-size="12.5" font-weight="600" fill="#1e40af">⚖️ 3層倫理ガードレール (全エージェント共通)</text>
  <text x="360" y="404" font-size="11" fill="#3b82f6">賛否表明の禁止 / 政治家名・党名リーク検出 / 失敗時ルールベース代替</text>
  <text x="360" y="422" font-size="11" fill="#3b82f6">スクレイパー失敗は Firestore に記録 → Scraper Doctor が診断</text>

  <!-- ============ Data layer ============ -->
  <rect x="330" y="490" width="430" height="180" rx="14" fill="#ffffff" stroke="#cbd5e1" stroke-width="1.5"/>
  <text x="350" y="522" font-size="16" font-weight="700" fill="#334155">🗄️ データ層</text>
  <rect x="350" y="540" width="190" height="52" rx="8" fill="#f1f5f9" stroke="#cbd5e1"/>
  <text x="360" y="561" font-size="13" font-weight="600" fill="#0f172a">BigQuery</text>
  <text x="360" y="579" font-size="10.5" fill="#64748b">830自治体 / 4,500+議題 / 統計</text>
  <rect x="550" y="540" width="190" height="52" rx="8" fill="#f1f5f9" stroke="#cbd5e1"/>
  <text x="560" y="561" font-size="13" font-weight="600" fill="#0f172a">Firestore</text>
  <text x="560" y="579" font-size="10.5" fill="#64748b">リアクション / 対話履歴 / 失敗ログ</text>
  <rect x="350" y="602" width="190" height="52" rx="8" fill="#f1f5f9" stroke="#cbd5e1"/>
  <text x="360" y="623" font-size="13" font-weight="600" fill="#0f172a">Vertex AI RAG Engine</text>
  <text x="360" y="641" font-size="10.5" fill="#64748b">国会議事録コーパス (1,428件) 検索</text>
  <rect x="550" y="602" width="190" height="52" rx="8" fill="#f1f5f9" stroke="#cbd5e1"/>
  <text x="560" y="623" font-size="13" font-weight="600" fill="#0f172a">Cloud Storage</text>
  <text x="560" y="641" font-size="10.5" fill="#64748b">Imagen 3 サムネ (SynthID+ラベル)</text>

  <!-- ============ API / Agents ============ -->
  <rect x="810" y="120" width="520" height="550" rx="14" fill="#f0fdf4" stroke="#86efac" stroke-width="1.5"/>
  <text x="830" y="152" font-size="16" font-weight="700" fill="#166534">🤖 FastAPI BFF + エージェント群 — Cloud Run</text>

  <!-- Watcher hero -->
  <rect x="830" y="170" width="480" height="120" rx="10" fill="#ffffff" stroke="#22c55e" stroke-width="2"/>
  <text x="845" y="196" font-size="15" font-weight="700" fill="#166534">🔭 Watcher「街の見張り番」 — ADK 自律エージェント</text>
  <text x="845" y="218" font-size="12" fill="#334155">① プランナーが調査計画を立案 → ② ツールを並列実行 → ③ 自己検証 → ④ 根拠つき結論</text>
  <rect x="845" y="230" width="110" height="24" rx="12" fill="#dcfce7"/><text x="858" y="247" font-size="11" fill="#166534">街の統計比較</text>
  <rect x="963" y="230" width="96" height="24" rx="12" fill="#dcfce7"/><text x="976" y="247" font-size="11" fill="#166534">議題検索</text>
  <rect x="1067" y="230" width="96" height="24" rx="12" fill="#dcfce7"/><text x="1080" y="247" font-size="11" fill="#166534">人口推移</text>
  <rect x="1171" y="230" width="120" height="24" rx="12" fill="#dcfce7"/><text x="1184" y="247" font-size="11" fill="#166534">トレンド分析</text>
  <text x="845" y="278" font-size="11.5" fill="#16a34a">→ 街ごとの評価 + 総合 verdict + アクションプラン生成</text>

  <!-- Concierge -->
  <rect x="830" y="304" width="234" height="96" rx="10" fill="#ffffff" stroke="#86efac"/>
  <text x="845" y="328" font-size="14" font-weight="700" fill="#166534">💬 Concierge — ADK 親子階層</text>
  <text x="845" y="348" font-size="11.5" fill="#334155">対話で街探し。サブエージェント:</text>
  <rect x="845" y="358" width="92" height="24" rx="12" fill="#dcfce7"/><text x="856" y="375" font-size="11" fill="#166534">Translator</text>
  <rect x="945" y="358" width="92" height="24" rx="12" fill="#dcfce7"/><text x="956" y="375" font-size="11" fill="#166534">Relevance</text>

  <!-- Preferences -->
  <rect x="1076" y="304" width="234" height="96" rx="10" fill="#ffffff" stroke="#86efac"/>
  <text x="1091" y="328" font-size="14" font-weight="700" fill="#166534">📝 Preferences — ADK</text>
  <text x="1091" y="350" font-size="11.5" fill="#334155">自然言語の自己紹介から</text>
  <text x="1091" y="368" font-size="11.5" fill="#334155">年代・関心軸を構造化抽出</text>

  <!-- Analysis agents -->
  <rect x="830" y="414" width="480" height="82" rx="10" fill="#ffffff" stroke="#86efac"/>
  <text x="845" y="438" font-size="13.5" font-weight="700" fill="#166534">📊 分析エージェント (Gemini 2.5 + ルールベース fallback)</text>
  <rect x="845" y="450" width="106" height="26" rx="13" fill="#f0fdf4" stroke="#86efac"/><text x="858" y="468" font-size="11.5" fill="#166534">🕰 Timeline</text>
  <rect x="959" y="450" width="106" height="26" rx="13" fill="#f0fdf4" stroke="#86efac"/><text x="972" y="468" font-size="11.5" fill="#166534">📈 Forecast</text>
  <rect x="1073" y="450" width="106" height="26" rx="13" fill="#f0fdf4" stroke="#86efac"/><text x="1086" y="468" font-size="11.5" fill="#166534">🗾 Heatmap</text>
  <rect x="1187" y="450" width="110" height="26" rx="13" fill="#f0fdf4" stroke="#86efac"/><text x="1200" y="468" font-size="11.5" fill="#166534">🔍 Reasoner</text>

  <!-- Ops agents -->
  <rect x="830" y="510" width="480" height="82" rx="10" fill="#ffffff" stroke="#86efac"/>
  <text x="845" y="534" font-size="13.5" font-weight="700" fill="#166534">🛠️ 運用エージェント (DevOps × AI Agent / 人間レビュー前提)</text>
  <rect x="845" y="546" width="200" height="26" rx="13" fill="#f0fdf4" stroke="#86efac"/><text x="858" y="564" font-size="11.5" fill="#166534">🩺 Scraper Doctor 失敗診断</text>
  <rect x="1053" y="546" width="220" height="26" rx="13" fill="#f0fdf4" stroke="#86efac"/><text x="1066" y="564" font-size="11.5" fill="#166534">💰 Cost Hunter コスト異常検知</text>

  <text x="830" y="630" font-size="12" fill="#16a34a">エンドポイント: /feed /speeches /compare /watcher /concierge /timeline /forecast /heatmap ほか</text>
  <text x="830" y="652" font-size="12" fill="#16a34a">キャッシュ: in-memory TTL + Cache-Control / scale-to-zero でコスト最小化</text>

  <!-- ============ Frontend ============ -->
  <rect x="1380" y="120" width="260" height="550" rx="14" fill="#fefce8" stroke="#fde047" stroke-width="1.5"/>
  <text x="1400" y="152" font-size="16" font-weight="700" fill="#854d0e">📱 フロントエンド</text>
  <rect x="1400" y="170" width="220" height="64" rx="8" fill="#ffffff" stroke="#fde047"/>
  <text x="1410" y="193" font-size="13.5" font-weight="600" fill="#0f172a">Next.js 16 + TypeScript</text>
  <text x="1410" y="212" font-size="11" fill="#64748b">Firebase App Hosting / zod 契約</text>
  <rect x="1400" y="248" width="220" height="180" rx="8" fill="#ffffff" stroke="#fde047"/>
  <text x="1410" y="271" font-size="12.5" font-weight="600" fill="#0f172a">主要画面</text>
  <text x="1410" y="292" font-size="11.5" fill="#475569">📰 For You フィード</text>
  <text x="1410" y="311" font-size="11.5" fill="#475569">🔭 Watcher 分析 + プラン</text>
  <text x="1410" y="330" font-size="11.5" fill="#475569">⚖️ 自治体比較</text>
  <text x="1410" y="349" font-size="11.5" fill="#475569">💬 コンシェルジュ</text>
  <text x="1410" y="368" font-size="11.5" fill="#475569">🏙️ 街ダッシュボード</text>
  <text x="1410" y="387" font-size="11.5" fill="#475569">🗾 ヒートマップ / 🕰 タイムライン</text>
  <text x="1410" y="406" font-size="11.5" fill="#475569">⚙️ オンボーディング</text>
  <rect x="1400" y="444" width="220" height="70" rx="8" fill="#ffffff" stroke="#fde047"/>
  <text x="1410" y="467" font-size="13" font-weight="700" fill="#0f172a">👥 ユーザー</text>
  <text x="1410" y="487" font-size="11.5" fill="#64748b">18-35歳の都市生活者</text>
  <text x="1410" y="505" font-size="11.5" fill="#64748b">新社会人 / 実家見守り / 移住検討</text>
  <text x="1400" y="545" font-size="11" fill="#a16207">全カード: 原典リンク併記</text>
  <text x="1400" y="563" font-size="11" fill="#a16207">AI 画像: 「AI生成」ラベル + SynthID</text>

  <!-- ============ DevOps strip ============ -->
  <rect x="40" y="710" width="1600" height="150" rx="14" fill="#faf5ff" stroke="#d8b4fe" stroke-width="1.5"/>
  <text x="60" y="742" font-size="16" font-weight="700" fill="#6b21a8">🔁 DevOps — つくる・まわす・とどける</text>
  <rect x="60" y="760" width="220" height="56" rx="8" fill="#ffffff" stroke="#d8b4fe"/>
  <text x="70" y="783" font-size="13" font-weight="600" fill="#0f172a">GitHub push / PR</text>
  <text x="70" y="801" font-size="11" fill="#64748b">個人開発 × Vibe Coding</text>
  <rect x="320" y="760" width="250" height="56" rx="8" fill="#ffffff" stroke="#d8b4fe"/>
  <text x="330" y="783" font-size="13" font-weight="600" fill="#0f172a">GitHub Actions</text>
  <text x="330" y="801" font-size="11" fill="#64748b">ruff / pytest / tsc / vitest / build</text>
  <rect x="610" y="760" width="250" height="56" rx="8" fill="#ffffff" stroke="#d8b4fe"/>
  <text x="620" y="783" font-size="13" font-weight="600" fill="#0f172a">Cloud Build</text>
  <text x="620" y="801" font-size="11" fill="#64748b">パスベース検知 → 自動デプロイ</text>
  <rect x="900" y="760" width="250" height="56" rx="8" fill="#ffffff" stroke="#d8b4fe"/>
  <text x="910" y="783" font-size="13" font-weight="600" fill="#0f172a">Cloud Run / Jobs 本番</text>
  <text x="910" y="801" font-size="11" fill="#64748b">API + Workers / ロールバック可</text>
  <rect x="1190" y="760" width="200" height="56" rx="8" fill="#ffffff" stroke="#d8b4fe"/>
  <text x="1200" y="783" font-size="13" font-weight="600" fill="#0f172a">Terraform (IaC)</text>
  <text x="1200" y="801" font-size="11" fill="#64748b">全 GCP リソース管理</text>
  <rect x="1420" y="760" width="200" height="56" rx="8" fill="#ffffff" stroke="#d8b4fe"/>
  <text x="1430" y="783" font-size="13" font-weight="600" fill="#0f172a">Cloud Logging</text>
  <text x="1430" y="801" font-size="11" fill="#64748b">構造化ログ / 観測性</text>
  <line x1="280" y1="788" x2="318" y2="788" stroke="#9333ea" stroke-width="2" marker-end="url(#arrB)"/>
  <line x1="570" y1="788" x2="608" y2="788" stroke="#9333ea" stroke-width="2" marker-end="url(#arrB)"/>
  <line x1="860" y1="788" x2="898" y2="788" stroke="#9333ea" stroke-width="2" marker-end="url(#arrB)"/>

  <!-- ============ Main flow arrows ============ -->
  <line x1="280" y1="280" x2="328" y2="280" stroke="#64748b" stroke-width="2.5" marker-end="url(#arr)"/>
  <text x="284" y="268" font-size="10.5" fill="#94a3b8">収集</text>
  <line x1="545" y1="450" x2="545" y2="488" stroke="#64748b" stroke-width="2.5" marker-end="url(#arr)"/>
  <text x="556" y="474" font-size="10.5" fill="#94a3b8">永続化</text>
  <line x1="760" y1="580" x2="808" y2="580" stroke="#64748b" stroke-width="2.5" marker-end="url(#arr)"/>
  <text x="762" y="568" font-size="10.5" fill="#94a3b8">参照</text>
  <line x1="1330" y1="395" x2="1378" y2="395" stroke="#64748b" stroke-width="2.5" marker-end="url(#arr)"/>
  <text x="1332" y="383" font-size="10.5" fill="#94a3b8">REST</text>
  <line x1="280" y1="395" x2="328" y2="574" stroke="#64748b" stroke-width="1.5" stroke-dasharray="5 4" marker-end="url(#arr)"/>
  <text x="255" y="470" font-size="10.5" fill="#94a3b8">統計ロード</text>

  <!-- Footer -->
  <text x="40" y="905" font-size="12" fill="#64748b">🧠 AI: ADK (Watcher / Concierge / Preferences) ・ Gemini 2.5 Flash/Pro ・ Vertex AI RAG Engine ・ Imagen 3 ・ Embeddings (text-multilingual-embedding-002)</text>
  <text x="40" y="928" font-size="12" fill="#64748b">⚖️ 倫理: 政治的中立 (賛否を出さない) ・ 政治家/党名リーク多層検出 ・ 人物画像生成禁止 ・ 原典リンク必須 ・ robots.txt 尊重 — 個人開発 by Yuji Matsumoto</text>
</svg>
